<svg xmlns="http://www.w3.org/2000/svg" width="213" height="31"><defs><style>*{fill:#000;}@media(prefers-color-scheme:dark){*{fill:#FFF;}}</style></defs><path fill-rule="evenodd" d="M.508 24h6.006c6.996 0 12.045-2.607 12.045-11.055 0-8.382-5.049-10.989-12.045-10.989H.508zM3.61 4.563h2.838c4.554 0 8.943.924 8.943 8.382 0 7.524-4.389 8.448-8.943 8.448H3.61zm25.872 19.833c3.069 0 5.313-1.353 6.501-3.267l-2.673-.792c-.759.99-1.98 1.617-3.828 1.617-2.013 0-4.917-1.254-5.049-5.379h12.606c.33-4.686-2.409-9.207-7.623-9.207-4.488 0-7.953 3.3-7.953 8.481 0 4.818 2.871 8.547 8.019 8.547zm-.066-14.652c2.904 0 4.653 2.31 4.686 4.62h-9.636c.264-3.3 2.475-4.62 4.95-4.62zm9.603 10.56c1.089 2.805 4.026 4.092 6.864 4.092 3.399 0 6.666-1.782 6.666-4.884 0-6.963-10.395-3.696-10.395-7.656 0-1.419 1.617-2.178 3.3-2.178 1.551 0 3.168.627 3.729 1.947l2.607-.957c-.99-2.277-3.564-3.333-6.138-3.333-3.168 0-6.303 1.617-6.303 4.554 0 6.534 10.395 3.234 10.395 7.722 0 1.485-1.914 2.442-3.861 2.442-1.815 0-3.696-.792-4.191-2.739zM55.024 7.632v2.211h2.277V24h2.772V7.632zm3.663-3.102a2.07 2.07 0 0 0 2.079-2.079c0-1.122-.924-2.046-2.079-2.046a2.056 2.056 0 0 0-2.046 2.046c0 1.155.924 2.079 2.046 2.079zm12.21 19.173c2.607 0 4.191-1.089 5.214-2.805v2.178c0 2.673-.495 3.861-2.508 4.554-.297.099-1.023.264-1.848.264-1.353 0-3.003-.429-3.597-2.145l-2.772.759c.858 2.739 3.696 3.828 6.369 3.828a9.46 9.46 0 0 0 3.135-.528c3.795-1.386 3.993-4.125 3.993-7.359V7.632H76.87l-.759 2.574c-1.023-1.716-2.607-2.838-5.214-2.838-3.63 0-6.93 2.937-6.93 8.184s3.3 8.151 6.93 8.151zm.693-13.959c2.475 0 4.62 1.65 4.62 5.808s-2.145 5.841-4.62 5.841c-2.706 0-4.62-2.112-4.62-5.841s1.914-5.808 4.62-5.808zm11.913-2.112V24h2.772v-8.877c0-3.498 1.65-5.379 4.323-5.379 3.168 0 3.597 2.211 3.597 4.719V24h2.772V13.638c0-3.729-1.452-6.27-5.412-6.27-2.772 0-4.356 1.188-5.28 2.739l-.726-2.475zm26.268 11.55c1.155 3.564 4.818 5.214 8.448 5.214 4.323 0 8.58-2.31 8.58-6.402 0-4.785-4.125-5.907-7.953-6.732-3.003-.627-5.676-1.188-5.676-3.663 0-2.31 2.343-3.432 4.752-3.432 2.013 0 4.092.792 4.95 2.343l2.838-.825c-1.386-2.838-4.554-4.125-7.656-4.125-4.059 0-8.085 2.178-8.085 5.907 0 4.851 4.521 5.841 7.92 6.567 4.191.858 5.643 1.848 5.643 3.828 0 2.64-2.541 3.927-5.181 3.927-2.409 0-4.95-1.089-5.709-3.465zm24.255 4.851c-.759 2.508-1.188 2.838-3.564 2.838h-1.122v2.442h1.419c3.663 0 4.521-1.056 5.709-4.587l5.808-17.061h-3.036l-4.026 12.606-4.026-12.606h-3.069zm9.966-3.729c1.089 2.805 4.026 4.092 6.864 4.092 3.399 0 6.666-1.782 6.666-4.884 0-6.963-10.395-3.696-10.395-7.656 0-1.419 1.617-2.178 3.3-2.178 1.551 0 3.168.627 3.729 1.947l2.607-.957c-.99-2.277-3.564-3.333-6.138-3.333-3.168 0-6.303 1.617-6.303 4.554 0 6.534 10.395 3.234 10.395 7.722 0 1.485-1.914 2.442-3.861 2.442-1.815 0-3.696-.792-4.191-2.739zm15.18-12.672v2.211h2.772v10.065c0 3.399.726 4.092 3.861 4.092h2.079v-2.442h-1.485c-1.584 0-1.683-.429-1.683-2.112V9.843h3.168V7.632h-3.168V3.507h-2.772v4.125zm19.305 16.764c3.069 0 5.313-1.353 6.501-3.267l-2.673-.792c-.759.99-1.98 1.617-3.828 1.617-2.013 0-4.917-1.254-5.049-5.379h12.606c.33-4.686-2.409-9.207-7.623-9.207-4.488 0-7.953 3.3-7.953 8.481 0 4.818 2.871 8.547 8.019 8.547zm-.066-14.652c2.904 0 4.653 2.31 4.686 4.62h-9.636c.264-3.3 2.475-4.62 4.95-4.62zm10.89-2.112V24h2.772v-8.877c0-3.498 1.584-5.379 3.96-5.379 3.003 0 3.498 2.211 3.498 4.719V24h2.772v-8.877c0-3.498 1.551-5.379 3.927-5.379 3.036 0 3.498 2.211 3.498 4.719V24h2.772V13.638c0-3.729-1.485-6.27-5.28-6.27-2.277 0-4.191.858-5.511 2.871-.726-1.782-2.211-2.871-4.719-2.871-2.442 0-3.993 1.188-4.917 2.739l-.726-2.475z"/></svg>
